<svg id="Layer_1" data-name="Layer 1" xmlns="http://www.w3.org/2000/svg" viewBox="0 0 100 100"><defs><style>.cls-1{fill:#fff;}.cls-2{fill:#a90533;}</style></defs><title>icon</title><circle class="cls-1" cx="50" cy="50" r="50"/><path class="cls-2" d="M29.87678,89a17.18963,17.18963,0,0,1-4.52661-.55617,13.06878,13.06878,0,0,1-4.01679-1.93115V81.07456H24.8249l.47892,3.198a5.28242,5.28242,0,0,0,1.9157.95012,9.28533,9.28533,0,0,0,2.65726.36306,5.52268,5.52268,0,0,0,2.06247-.33988,2.79445,2.79445,0,0,0,1.28228-.96558,2.49788,2.49788,0,0,0,.44031-1.4754,2.62514,2.62514,0,0,0-.394-1.429,3.60089,3.60089,0,0,0-1.29773-1.14324,12.48,12.48,0,0,0-2.4487-.99647,23.87872,23.87872,0,0,1-4.42619-1.72258,7.06059,7.06059,0,0,1-2.62636-2.24014,5.52492,5.52492,0,0,1-.87288-3.14391,5.3516,5.3516,0,0,1,1.01192-3.22115,6.80259,6.80259,0,0,1,2.804-2.20151,10.37294,10.37294,0,0,1,4.14038-.83426,14.33448,14.33448,0,0,1,4.59614.618,10.83426,10.83426,0,0,1,3.45289,1.80755v5.06734H34.218l-.58707-3.08984a6.04528,6.04528,0,0,0-1.58355-.64887,8.43116,8.43116,0,0,0-2.2633-.27808,5.19752,5.19752,0,0,0-1.908.32443,2.98794,2.98794,0,0,0-1.30545.9424,2.3728,2.3728,0,0,0-.47893,1.49857,2.16038,2.16038,0,0,0,.41713,1.32091,3.94873,3.94873,0,0,0,1.39815,1.066,19.84661,19.84661,0,0,0,2.71133,1.07372A14.25421,14.25421,0,0,1,36.265,78.30916,5.67133,5.67133,0,0,1,38.18845,82.774a5.41485,5.41485,0,0,1-1.0351,3.31385A6.57928,6.57928,0,0,1,34.2489,88.243,11.59911,11.59911,0,0,1,29.87678,89Z"/><path class="cls-2" d="M45.14059,88.67557V85.972l2.41007-.46348V69.65761h-4.094l-.24718,2.68816H39.79516V66.18154H59.86367v6.16423H56.43394l-.24718-2.68816H52.06182V85.50848l2.42553.46348v2.70361Z"/><path class="cls-2" d="M70.355,89a17.19962,17.19962,0,0,1-4.5279-.55617,13.06878,13.06878,0,0,1-4.01679-1.93115V81.07456h3.49152l.47893,3.198a5.28234,5.28234,0,0,0,1.9157.95012,9.30067,9.30067,0,0,0,2.65854.36306,5.52268,5.52268,0,0,0,2.06247-.33988,2.79445,2.79445,0,0,0,1.28228-.96558,2.49788,2.49788,0,0,0,.44031-1.4754,2.62514,2.62514,0,0,0-.394-1.429,3.6008,3.6008,0,0,0-1.29773-1.14324,12.48,12.48,0,0,0-2.4487-.99647,23.89484,23.89484,0,0,1-4.42748-1.72258,7.06059,7.06059,0,0,1-2.62636-2.24014,5.52492,5.52492,0,0,1-.87288-3.14391,5.35167,5.35167,0,0,1,1.01192-3.22115,6.80266,6.80266,0,0,1,2.804-2.20151,10.37941,10.37941,0,0,1,4.14167-.83426,14.33444,14.33444,0,0,1,4.59614.618,10.83426,10.83426,0,0,1,3.45289,1.80755v5.06734H74.69618l-.58707-3.08984a6.04534,6.04534,0,0,0-1.58354-.64887,8.43124,8.43124,0,0,0-2.26331-.27808,5.19755,5.19755,0,0,0-1.908.32443,2.98468,2.98468,0,0,0-1.30674.9424,2.37286,2.37286,0,0,0-.47893,1.49857,2.16044,2.16044,0,0,0,.41713,1.32091,3.94327,3.94327,0,0,0,1.39944,1.066,19.84683,19.84683,0,0,0,2.71134,1.07372,14.25428,14.25428,0,0,1,5.64668,2.73451A5.67136,5.67136,0,0,1,78.66662,82.774a5.41485,5.41485,0,0,1-1.0351,3.31385A6.5793,6.5793,0,0,1,74.72708,88.243,11.5992,11.5992,0,0,1,70.355,89Z"/><path class="cls-1" d="M66.86943,22.58522l-11.24687.01169a7.59794,7.59794,0,0,0-2.18878-1.23872c-1.37224-.41427-1.21411-.81372-1.14653-.91442a2.35833,2.35833,0,0,1,.59509-.1797,3.11972,3.11972,0,0,1,1.0745.07054c.98491.1713,1.40275-.315.61555-.889a9.47072,9.47072,0,0,0-1.88352-.92725c-.78315-.34581-.67444-1.22231-.36937-1.25409.47305-.04883,1.74817.35091.85188-.65447a4.80624,4.80624,0,0,0-1.19827-.87528c-.50318-.19206-.0029-.49327.17841-.58765.18169-.09455.81789-.27059-.07414-.94769,0,0-1.56552-.9507-.9519-1.39795.632-.46112.87659-.81873.2902-.85916-.41571-.029-.82041-.17915-.71595-.59848.02529-.1484.38114-.39126.50009-.53967.15639-.19534.02181-.26331-.0643-.286a.73353.73353,0,0,0-.167-.01651c-.30912.00143-.48923-.17742-.64743-.5963-.19026-.76111-.32169-1.445-.32169-1.445-.00772,0-.01659-.00235-.02676-.00235h-.00075c-.13464.001-.14086.08663-.23363.49223-.30546,1.34638-.45763,1.86208-.9836,1.861a.89132.89132,0,0,0-.169.01414c-.08722.02452-.21865.09248-.0627.28716.21589.27.72584.50874.73584.70362.00952.16931-.13209.32224-.33328.50891a6.59059,6.59059,0,0,1-.72207.5519,3.10535,3.10535,0,0,0-.74953.61179c-.14151.32685.587.30818.587.30818,1.29812.04912.75337.52692.54145.60151a5.26808,5.26808,0,0,0-.9542.38577,6.31836,6.31836,0,0,0-.85483.69446c-.89753,1.00614.3772.60613.85087.65506.3048.03149.41473.90789-.37,1.25314-.50082.22212-.83721.36674-1.09175.48167a2.594,2.594,0,0,0-.8637.72444c-.29865.42888.60312.28991,1.22044.33836.4021.03149.87642-.29735,1.166-.26879.36232.03783.47469.11305.53163.34413.06289.25012-.12021.49958-.38937.71906a.86162.86162,0,0,1-.311.22569l-.02168.01076a6.725,6.725,0,0,1-.96005.48139,16.91925,16.91925,0,0,0-3.81932,2.61633c-.56444.63232-.101.97709.14209.86868a1.92653,1.92653,0,0,1,1.3164-.22477,4.36009,4.36009,0,0,0,1.7634-.21241h.00046c.47819-.10238.94033-.90289,1.12805-.59518.45065.73642-.32216,1.60187-.63111,1.90308-.60035.80014-2.26494,1.5269-2.93366,2.06907-.77789.62868-1.09629,1.452-1.30784,3.07195-.20958,1.62.63215.463.63215.463a2.24706,2.24706,0,0,1,1.93515-.82523,2.71408,2.71408,0,0,0,1.9132-.60474c.79194-.44873.38.60474.38.60474-.52646,1.16911-1.46858,1.1778-2.52073,1.83872a3.78989,3.78989,0,0,0-.37937.35373c-.443.4354-.30218.61477-.05959.57809.24041-.03669.62544.11334,1.02641.1a3.17711,3.17711,0,0,0,1.24241-.30275c.46987-.20448.70945-.58562,1.00944-.39312.20053.128.16149.45414.11237.65822a2.0297,2.0297,0,0,1-.48091.85072A13.68,13.68,0,0,1,44.595,34.86308q-.11229.05069-.21843.10658a.53205.53205,0,0,1-.071.04422A4.54474,4.54474,0,0,0,43.09828,36.049c-.12726.18361-.78476,1.24094.11475.78372.90092-.457,2.10072.31666,2.69561.02182.35-.17242.22967.5329.2175.6001a1.7386,1.7386,0,0,1-.08022.5553c-.264.52345-.46452.48966-1.41881.89822h-5.568l-5.92767-5.93478V13.63271L40.09768,6.9379H59.90185l6.96758,6.70593v8.94139ZM52.80838,33.3974c.732.19212,1.10675.70108,2.35773.36415a1.559,1.559,0,0,1,.83528.061c.3182.16354,1.14807-.063-.40045-1.149-1.129-.79009-2.15249-.72542-2.71165-1.964,0,0-.20564-.37226-.10716-.55627L52.781,30.153a.60761.60761,0,0,1,.72888-.25391c.38732.13729,1.80629.747,2.39944.888a2.19613,2.19613,0,0,1,.74588.31337c.26375.15756,1.08145.45375,1.07836-.15388a5.65525,5.65525,0,0,0-.65262-2.22721l3.85992.00154,5.9286,5.92533V53.1034l-6.96758,6.7048-1.95766-.00078A5.028,5.028,0,0,1,54.92264,58.629c-1.0187-1.21777-1.56686-1.082-2.28842-1.80378a4.18126,4.18126,0,0,1-1.1305-3.00379V48.96873s-.07761-.9826.70244-.37554c.77755.60588,1.21526.53773,2.5288.43578,1.31393-.10387,2.75432,1.07875,3.51005,1.5408.75572.46263,2.29479,1.61436.70437-2.40851a3.51789,3.51789,0,0,0-1.6972-1.55161c-.2904-.15582-.71634-.68352-.32225-1.13069,0,0,.78835-.69665.36106-1.1724-.14076-.1705-.49275-.33693-1.26894-.43347a2.72415,2.72415,0,0,1-2.18067-1.52419c-.06971-.56883.70629-.78083,1.09342-.5194a5.25309,5.25309,0,0,0,1.71458.62385c1.46781.201,1.301.07028,1.1388-.38771a2.43565,2.43565,0,0,0-1.28536-1.46009c-2.01809-1.05519-2.256-.77232-2.60487-1.46434-.09963-.19791-.19482-1.40506.28866-1.04245l.01641.01062a2.78261,2.78261,0,0,0,.33152.31473,2.15649,2.15649,0,0,0,1.61224.42419c.70707-.01428.78836.27187,1.07354.40278.285.13168.66652.36589.31588-.698a3.95216,3.95216,0,0,0-2.18782-2.55835,13.734,13.734,0,0,1-2.40812-1.601c-.26375-.29793-.86288-1.18939-.13188-.9963Zm-4.36685,14.43v.46841l-.00123.001V48.999l-.00433-.03031v2.93891c-.01772,1.41028-.11973,2.70779-.691,3.27738a12.97978,12.97978,0,0,0-1.87567,1.92387c-.63855.98763-1.4253,2.58732-3.53112,2.68927l-2.24053-.00078-6.96624-6.70614.0032-7.95365h8.82287l.00161-.00078H43.288a1.17857,1.17857,0,0,1-.30284.20834,3.96156,3.96156,0,0,0-1.98993,1.68426,13.60586,13.60586,0,0,0-.59311,1.76941l.00537.00019c-.21656.95171.31575,1.35023.69221.86578a7.76145,7.76145,0,0,1,3.46444-1.92812c.73773-.06391,2.01464,0,2.77274-.80129.75837-.80091,1.10466-.77832,1.10466-.48561v1.26682c.001.05078.001.09229,0,.11084ZM67.83871,13.23185,60.29149,5.969H39.70916L32.16207,13.22V33.374l6.49523,6.50263,4.1888.00155a2.33174,2.33174,0,0,0-.6907,1.05616c-.16244.45838-.32874.58909,1.13909.3879a5.22977,5.22977,0,0,0,1.71378-.62423c.38787-.26163,1.1635-.04924,1.09393.52a2.72317,2.72317,0,0,1-2.18011,1.524c-2.04.25178-1.15981.99843-1.15981.99843a2.52641,2.52641,0,0,1,.50194.42942H42.2709l-.001-.00116L32.1664,44.16831l-.00433,9.33535,7.54578,7.27458H60.29149l7.54722-7.26242v-19.271l-6.49666-6.49317-5.24779.00058c-.41841-.27148-.9826-.57829-1.49561-.90923L54.594,26.8405a3.88793,3.88793,0,0,1-.57384-.40856,3.3498,3.3498,0,0,1-.4103-.37786,4.73415,4.73415,0,0,1-.88548-1.17067c-.167-.41106-.12878-.93059.25217-.71544a7.85825,7.85825,0,0,0,3.15555.6722,4.85854,4.85854,0,0,1,.65628.08727c.11894.04634.30372.13361.30372.13361.23827.1004.67212-.22551.17243-.82567a4.67756,4.67756,0,0,0-.56091-.68107l11.13508.00095V13.23185Z"/><path class="cls-2" d="M52.94026,34.3937a13.734,13.734,0,0,0,2.40812,1.601,3.95216,3.95216,0,0,1,2.18782,2.55835c.35064,1.06388-.03089.82967-.31588.698-.28518-.13091-.36647-.41706-1.07354-.40278a2.15649,2.15649,0,0,1-1.61224-.42419,2.78261,2.78261,0,0,1-.33152-.31473l-.01641-.01062c-.48348-.36261-.38829.84454-.28866,1.04245.3489.692.58678.40915,2.60487,1.46434a2.43565,2.43565,0,0,1,1.28536,1.46009c.16218.458.329.58871-1.1388.38771a5.25309,5.25309,0,0,1-1.71458-.62385c-.38713-.26143-1.16313-.04943-1.09342.5194a2.72415,2.72415,0,0,0,2.18067,1.52419c.77619.09654,1.12818.263,1.26894.43347.42729.47575-.36106,1.1724-.36106,1.1724-.39409.44717.03185.97487.32225,1.13069a3.51789,3.51789,0,0,1,1.6972,1.55161c1.59042,4.02287.05135,2.87114-.70437,2.40851-.75573-.462-2.19612-1.64467-3.51-1.5408-1.31354.102-1.75125.1701-2.5288-.43578-.78-.60706-.70244.37554-.70244.37554v4.85274a4.18126,4.18126,0,0,0,1.1305,3.00379c.72156.72174,1.26972.586,2.28842,1.80378a5.028,5.028,0,0,0,3.02155,1.17838l1.95766.00078,6.96758-6.7048V34.64626l-5.9286-5.92533-3.85992-.00154a5.65525,5.65525,0,0,1,.65262,2.22721c.00309.60763-.81461.31144-1.07836.15388a2.19613,2.19613,0,0,0-.74588-.31337c-.59315-.141-2.01212-.7507-2.39944-.888a.60761.60761,0,0,0-.72888.25391l.00116.00019c-.09848.184.10716.55627.10716.55627.55916,1.23862,1.58269,1.174,2.71165,1.964,1.54852,1.08608.71865,1.31257.40045,1.149a1.559,1.559,0,0,0-.83528-.061c-1.251.33693-1.62575-.172-2.35773-.36415-.731-.19309-.13187.69837.13188.9963Z"/><path class="cls-2" d="M45.86933,57.10889A12.97978,12.97978,0,0,1,47.745,55.185c.57124-.56959.67325-1.8671.691-3.27738V48.96873l.00433.03031v-.70223l.00123-.001v-.46841c.001-.01855.001-.06006,0-.11084V46.44977c0-.29271-.34629-.3153-1.10466.48561-.7581.80129-2.035.73738-2.77274.80129a7.76145,7.76145,0,0,0-3.46444,1.92812c-.37646.48445-.90877.08593-.69221-.86578l-.00537-.00019a13.60586,13.60586,0,0,1,.59311-1.76941,3.96156,3.96156,0,0,1,1.98993-1.68426,1.17857,1.17857,0,0,0,.30284-.20834H41.95912l-.00086.00078H33.13464l-.0032,7.95365,6.96624,6.70614,2.24053.00078c2.10582-.102,2.89257-1.70164,3.53112-2.68927Z"/><path class="cls-2" d="M40.09768,6.9379l-6.96624,6.69481V32.97338l5.92767,5.93478h5.568c.95429-.40856,1.15483-.37477,1.41881-.89822a1.7386,1.7386,0,0,0,.08022-.5553c.01217-.0672.13246-.77252-.2175-.6001-.59489.29484-1.79469-.47885-2.69561-.02182-.89951.45722-.242-.60011-.11475-.78372a4.54474,4.54474,0,0,1,1.20725-1.03512.53205.53205,0,0,0,.071-.04422q.1062-.05591.21843-.10658a13.68,13.68,0,0,0,2.40882-1.60162,2.0297,2.0297,0,0,0,.48091-.85072c.04912-.20408.08816-.5302-.11237-.65822-.3-.1925-.53957.18864-1.00944.39312a3.17711,3.17711,0,0,1-1.24241.30275c-.401.01333-.786-.1367-1.02641-.1-.24259.03668-.38344-.14269.05959-.57809a3.78989,3.78989,0,0,1,.37937-.35373c1.05215-.66092,1.99427-.66961,2.52073-1.83872,0,0,.4119-1.05347-.38-.60474a2.71408,2.71408,0,0,1-1.9132.60474,2.24706,2.24706,0,0,0-1.93515.82523s-.84173,1.157-.63215-.463c.21155-1.62.52995-2.44327,1.30784-3.07195.66872-.54217,2.33331-1.26893,2.93366-2.06907.30895-.30121,1.08176-1.16666.63111-1.90308-.18772-.30771-.64986.4928-1.12805.59518h-.00046a4.36009,4.36009,0,0,1-1.7634.21241,1.92653,1.92653,0,0,0-1.3164.22477c-.24306.10841-.70653-.23636-.14209-.86868a16.91925,16.91925,0,0,1,3.81932-2.61633,6.725,6.725,0,0,0,.96005-.48139l.02168-.01076a.86162.86162,0,0,0,.311-.22569c.26916-.21948.45226-.46894.38937-.71906-.05694-.23108-.16931-.3063-.53163-.34413-.28963-.02856-.76395.30028-1.166.26879-.61732-.04845-1.51909.09052-1.22044-.33836a2.594,2.594,0,0,1,.8637-.72444c.25454-.11493.59093-.25955,1.09175-.48167.78477-.34525.67484-1.22165.37-1.25314-.47367-.04893-1.7484.35108-.85087-.65506a6.31836,6.31836,0,0,1,.85483-.69446,5.26808,5.26808,0,0,1,.9542-.38577c.21192-.07459.75667-.55239-.54145-.60151,0,0-.7285.01867-.587-.30818a3.10535,3.10535,0,0,1,.74953-.61179,6.59059,6.59059,0,0,0,.72207-.5519c.20119-.18667.3428-.3396.33328-.50891-.01-.19488-.52-.43358-.73584-.70362-.15595-.19468-.02452-.26264.0627-.28716a.89132.89132,0,0,1,.169-.01414c.526.00112.67814-.51458.9836-1.861.09277-.4056.099-.49121.23363-.49223h.00075c.01017,0,.019.00235.02676.00235,0,0,.13143.6839.32169,1.445.1582.41888.33831.59773.64743.5963a.73353.73353,0,0,1,.167.01651c.08611.02272.22069.09069.0643.286-.119.14841-.4748.39127-.50009.53967-.10446.41933.30024.56944.71595.59848.58639.04043.34176.398-.2902.85916-.61362.44725.9519,1.39795.9519,1.39795.892.6771.25583.85314.07414.94769-.18131.09438-.68159.39559-.17841.58765a4.80624,4.80624,0,0,1,1.19827.87528c.89629,1.00538-.37883.60564-.85188.65447-.30507.03178-.41378.90828.36937,1.25409a9.47072,9.47072,0,0,1,1.88352.92725c.7872.574.36936,1.06025-.61555.889a3.11972,3.11972,0,0,0-1.0745-.07054,2.35833,2.35833,0,0,0-.59509.1797c-.06758.1007-.22571.50015,1.14653.91442a7.59794,7.59794,0,0,1,2.18878,1.23872l11.24687-.01169V13.64383L59.90185,6.9379Z"/><path class="cls-2" d="M67.83871,23.55526l-11.13508-.00095a4.67756,4.67756,0,0,1,.56091.68107c.49969.60016.06584.92607-.17243.82567,0,0-.18478-.08727-.30372-.13361a4.85854,4.85854,0,0,0-.65628-.08727,7.85825,7.85825,0,0,1-3.15555-.6722c-.38095-.21515-.41919.30438-.25217.71544a4.73415,4.73415,0,0,0,.88548,1.17067,3.3498,3.3498,0,0,0,.4103.37786,3.88793,3.88793,0,0,0,.57384.40856l.00464.00251c.513.33094,1.0772.63775,1.49561.90923l5.24779-.00058,6.49666,6.49317v19.271l-7.54722,7.26242H39.70785l-7.54578-7.27458.00433-9.33535H42.26986l.001.00155h.99332a2.52641,2.52641,0,0,0-.50194-.42942s-.88019-.74665,1.15981-.99843a2.72317,2.72317,0,0,0,2.18011-1.524c.06957-.56921-.70606-.7816-1.09393-.52a5.22977,5.22977,0,0,1-1.71378.62423c-1.46783.20119-1.30153.07048-1.13909-.3879a2.33174,2.33174,0,0,1,.6907-1.05616l-4.1888-.00155L32.16207,33.374V13.22l7.54709-7.251H60.29149l7.54722,7.26285V23.55526Zm.9685-10.73589L60.68268,5H39.31809l-8.12483,7.807V33.77468l7.06232,7.07049h3.239a.88783.88783,0,0,0,.04185.86442.95328.95328,0,0,0,.82721.35412,7.11584,7.11584,0,0,0,.86348-.07569l.0019.00155s.169.14462-.34715.31086h0a1.324,1.324,0,0,0-.92.81037.822.822,0,0,0-.01726.08824H31.19675l-.004,10.717,8.12294,7.83144H60.68268l8.12453-7.81927v-20.085L61.74328,26.782h-5.991l-.00791-.00464c-.26394-.15562-.53639-.31549-.78488-.47749l-.08921-.05715-.01738-.0056a3.855,3.855,0,0,1-.42883-.31453,2.54577,2.54577,0,0,1-.32728-.302l-.023-.02317a5.86428,5.86428,0,0,1-.40277-.45471,10.73206,10.73206,0,0,0,2.44018.34832l.061.00019c.03205,0,.06333.00077.09191.00154l.04344.00368a1.33925,1.33925,0,0,1,.26665.04653c.06255.0251.11913.05194.16856.07491l.25409.09307a.87714.87714,0,0,0,.18691.01969A.96361.96361,0,0,0,58.051,25.173a1.05723,1.05723,0,0,0,.07125-.65358l10.685.00579V12.81937Z"/></svg>